<?xml version="1.0" encoding="utf-8"?>
<!-- Generator: Adobe Illustrator 18.1.1, SVG Export Plug-In . SVG Version: 6.00 Build 0)  -->
<svg version="1.1" id="Layer_1" xmlns="http://www.w3.org/2000/svg" xmlns:xlink="http://www.w3.org/1999/xlink" x="0px" y="0px"
	 viewBox="0 0 118 64" enable-background="new 0 0 118 64" xml:space="preserve">
<g>
	<polygon fill="#86499B" points="117.4,9.4 116.5,11.8 115.5,9.4 114.9,9.4 114.9,12.4 115.3,12.4 115.3,9.8 115.3,9.8 116.4,12.4 
		116.6,12.4 117.6,9.8 117.6,9.8 117.6,12.4 118,12.4 118,9.4 	"/>
	<polygon fill="#86499B" points="112.1,9.7 113.1,9.7 113.1,12.4 113.4,12.4 113.4,9.7 114.4,9.7 114.4,9.4 112.1,9.4 	"/>
	<linearGradient id="SVGID_1_" gradientUnits="userSpaceOnUse" x1="0" y1="18.5435" x2="113.5405" y2="18.5435">
		<stop  offset="6.000000e-02" style="stop-color:#00ADA0"/>
		<stop  offset="0.1867" style="stop-color:#00A4A7"/>
		<stop  offset="0.3928" style="stop-color:#008CB9"/>
		<stop  offset="0.497" style="stop-color:#007DC4"/>
		<stop  offset="0.513" style="stop-color:#077AC2"/>
		<stop  offset="0.6569" style="stop-color:#3D65B1"/>
		<stop  offset="0.7812" style="stop-color:#6556A5"/>
		<stop  offset="0.8796" style="stop-color:#7D4C9E"/>
		<stop  offset="0.94" style="stop-color:#86499B"/>
	</linearGradient>
	<path fill="url(#SVGID_1_)" d="M14.1,8.8c-3.2,0-6,1.1-8.3,3V0H0v23c0,3.7,1.3,7,3.9,9.8c2.6,2.8,6,4.2,10.1,4.2
		c4.1,0,7.5-1.4,10.1-4.2c2.6-2.8,3.9-6.1,3.9-9.8c0-3.7-1.2-7-3.7-9.7C21.7,10.3,18.2,8.8,14.1,8.8z M21.2,27.4
		c-0.7,1.3-1.7,2.3-3,3c-1.3,0.7-2.6,1.1-4.1,1.1c-1.5,0-2.9-0.4-4.1-1.1c-1.3-0.7-2.2-1.7-3-3c-0.7-1.3-1.1-2.7-1.1-4.3
		c0-2.4,0.8-4.4,2.4-6.1c1.6-1.7,3.5-2.5,5.8-2.5c2.2,0,4.1,0.8,5.8,2.5c1.6,1.7,2.4,3.7,2.4,6.1C22.3,24.6,21.9,26,21.2,27.4z
		 M109.8,13.3c-2.7-3-6.2-4.5-10.3-4.5c-4.1,0-7.6,1.5-10.3,4.5c-2.5,2.7-3.7,6-3.7,9.7c0,3.7,1.3,7,3.9,9.8c2.6,2.8,6,4.2,10.1,4.2
		c4.1,0,7.5-1.4,10.1-4.2c2.6-2.8,3.9-6.1,3.9-9.8C113.5,19.3,112.3,16,109.8,13.3z M106.6,27.4c-0.7,1.3-1.7,2.3-3,3
		c-1.3,0.7-2.6,1.1-4.1,1.1c-1.5,0-2.9-0.4-4.1-1.1c-1.3-0.7-2.2-1.7-3-3c-0.7-1.3-1.1-2.7-1.1-4.3c0-2.4,0.8-4.4,2.4-6.1
		c1.6-1.7,3.5-2.5,5.8-2.5c2.2,0,4.1,0.8,5.8,2.5c1.6,1.7,2.4,3.7,2.4,6.1C107.7,24.6,107.4,26,106.6,27.4z M49.1,22.1
		c0,3.3-0.2,4.7-0.4,5.4c-0.4,1.2-1,2.1-2,2.8c-1,0.7-2.3,1.1-3.8,1.1c-1.5,0-2.7-0.4-3.8-1.1c-1-0.7-1.7-1.6-2-2.8
		c-0.2-0.6-0.4-2.1-0.4-5.4V9.4h-5.8v13.1c0,3.7,0.4,6.4,1.3,8.3c0.9,2,2.3,3.5,4.1,4.6c1.8,1.1,4,1.6,6.6,1.6
		c2.6,0,4.8-0.6,6.6-1.6c1.8-1.1,3.2-2.7,4.1-4.6c0.9-1.9,1.3-4.6,1.3-8.3V9.4h-5.8V22.1z M77.9,10.4c-1.6-1.1-3.5-1.6-5.6-1.6
		c-2,0-3.9,0.5-5.6,1.4c-0.8,0.4-1.5,0.9-2.2,1.6V0h-5.8v36.5h5.8V26.2c0-3.9,0.2-5.6,0.4-6.3c0.4-1.6,1.2-2.9,2.5-4
		c1.3-1.1,2.7-1.6,4.3-1.6c1.4,0,2.4,0.3,3.2,0.9c0.8,0.6,1.3,1.6,1.7,2.9c0.1,0.6,0.3,2,0.3,5.3v13h5.8V22.6c0-3.6-0.4-6.1-1.1-7.9
		C80.8,12.9,79.5,11.5,77.9,10.4z"/>
</g>
<g>
	<path fill="#0178B9" d="M6.7,61.5c-0.6,0-1.1-0.1-1.6-0.3C4.7,61,4.3,60.8,4,60.4c-0.3-0.3-0.5-0.7-0.7-1.2c-0.2-0.5-0.2-1-0.2-1.6
		s0.1-1.1,0.2-1.6c0.2-0.5,0.4-0.9,0.7-1.2s0.7-0.6,1.1-0.8c0.4-0.2,0.9-0.3,1.5-0.3c0.3,0,0.7,0,1,0.1c0.3,0.1,0.6,0.1,1,0.3
		l-0.3,1.1c-0.2-0.1-0.4-0.2-0.7-0.2c-0.3-0.1-0.5-0.1-0.8-0.1c-0.7,0-1.3,0.2-1.7,0.7c-0.4,0.5-0.6,1.1-0.6,2c0,0.4,0,0.8,0.1,1.1
		c0.1,0.3,0.2,0.6,0.4,0.9c0.2,0.2,0.4,0.4,0.7,0.5c0.3,0.1,0.7,0.2,1.1,0.2c0.4,0,0.7,0,1-0.1s0.5-0.1,0.7-0.2l0.2,1.1
		c-0.1,0-0.2,0.1-0.3,0.1c-0.1,0-0.3,0.1-0.5,0.1c-0.2,0-0.4,0.1-0.6,0.1S6.9,61.5,6.7,61.5z"/>
	<path fill="#0178B9" d="M12.3,61.5c-0.8,0-1.4-0.2-1.7-0.5c-0.3-0.3-0.5-0.8-0.5-1.5v-8.9l1.3-0.2v8.9c0,0.2,0,0.4,0.1,0.5
		c0,0.1,0.1,0.3,0.2,0.3c0.1,0.1,0.2,0.1,0.3,0.2c0.1,0,0.3,0.1,0.5,0.1L12.3,61.5z"/>
	<path fill="#0178B9" d="M16.4,53.8c0.5,0,1,0.1,1.3,0.2c0.4,0.1,0.7,0.3,0.9,0.6s0.4,0.5,0.5,0.9c0.1,0.3,0.1,0.7,0.1,1.1v4.6
		c-0.1,0-0.3,0-0.5,0.1s-0.4,0.1-0.7,0.1s-0.5,0.1-0.8,0.1c-0.3,0-0.6,0-0.9,0c-0.4,0-0.8,0-1.2-0.1c-0.4-0.1-0.7-0.2-0.9-0.4
		c-0.3-0.2-0.5-0.4-0.6-0.7c-0.1-0.3-0.2-0.7-0.2-1.1c0-0.4,0.1-0.8,0.2-1.1c0.2-0.3,0.4-0.5,0.7-0.7c0.3-0.2,0.6-0.3,1-0.4
		c0.4-0.1,0.8-0.1,1.2-0.1c0.1,0,0.3,0,0.4,0c0.1,0,0.3,0,0.4,0.1s0.2,0,0.3,0.1c0.1,0,0.2,0,0.2,0v-0.4c0-0.2,0-0.4-0.1-0.6
		c0-0.2-0.1-0.4-0.3-0.6c-0.1-0.2-0.3-0.3-0.5-0.4c-0.2-0.1-0.5-0.1-0.8-0.1c-0.4,0-0.8,0-1.1,0.1s-0.6,0.1-0.7,0.2l-0.2-1.1
		c0.2-0.1,0.5-0.1,0.9-0.2S15.9,53.8,16.4,53.8z M16.5,60.4c0.3,0,0.6,0,0.8,0c0.2,0,0.4,0,0.6-0.1v-2.2c-0.1,0-0.2-0.1-0.5-0.1
		c-0.2,0-0.5,0-0.8,0c-0.2,0-0.4,0-0.6,0c-0.2,0-0.4,0.1-0.6,0.2c-0.2,0.1-0.3,0.2-0.5,0.4s-0.2,0.4-0.2,0.6c0,0.5,0.2,0.8,0.5,1
		S16,60.4,16.5,60.4z"/>
	<path fill="#0178B9" d="M24.2,53.8c0.1,0,0.2,0,0.4,0s0.3,0,0.4,0.1c0.1,0,0.3,0,0.4,0.1c0.1,0,0.2,0,0.3,0.1l-0.2,1.2
		c-0.1,0-0.3-0.1-0.5-0.1s-0.6-0.1-0.9-0.1c-0.2,0-0.5,0-0.7,0.1s-0.4,0.1-0.5,0.1v6.2h-1.3v-7.1c0.3-0.1,0.7-0.2,1.2-0.3
		C23.1,53.8,23.6,53.8,24.2,53.8z"/>
	<path fill="#0178B9" d="M27.6,52.6c-0.2,0-0.4-0.1-0.6-0.2c-0.2-0.2-0.2-0.4-0.2-0.6c0-0.3,0.1-0.5,0.2-0.6
		c0.2-0.2,0.4-0.2,0.6-0.2s0.4,0.1,0.6,0.2c0.2,0.2,0.2,0.4,0.2,0.6c0,0.3-0.1,0.5-0.2,0.6C28,52.5,27.8,52.6,27.6,52.6z M28.2,61.3
		h-1.3v-7.4h1.3V61.3z"/>
	<path fill="#0178B9" d="M31.7,53.9h2.8V55h-2.8v3.4c0,0.4,0,0.7,0.1,0.9c0.1,0.2,0.1,0.4,0.3,0.6c0.1,0.1,0.3,0.2,0.4,0.3
		c0.2,0.1,0.4,0.1,0.6,0.1c0.4,0,0.7,0,1-0.1c0.2-0.1,0.4-0.2,0.5-0.2l0.3,1.1c-0.1,0.1-0.4,0.1-0.7,0.2c-0.3,0.1-0.7,0.1-1.1,0.1
		c-0.5,0-0.9-0.1-1.2-0.2c-0.3-0.1-0.6-0.3-0.8-0.6c-0.2-0.3-0.3-0.6-0.4-0.9c-0.1-0.4-0.1-0.8-0.1-1.3v-6.6l1.3-0.2V53.9z"/>
	<path fill="#0178B9" d="M35.4,62.7c0.1,0,0.2,0.1,0.4,0.1c0.2,0,0.3,0.1,0.5,0.1c0.5,0,0.9-0.1,1.2-0.3c0.3-0.2,0.6-0.6,0.8-1.1
		c-0.6-1.1-1.2-2.3-1.7-3.6c-0.5-1.3-0.9-2.6-1.3-3.9h1.4c0.1,0.4,0.2,0.9,0.4,1.4c0.1,0.5,0.3,1,0.5,1.5c0.2,0.5,0.4,1,0.6,1.6
		c0.2,0.5,0.4,1,0.7,1.5c0.4-1,0.7-2,0.9-3s0.5-2,0.8-3h1.4c-0.3,1.4-0.7,2.7-1.1,4c-0.4,1.3-0.9,2.5-1.4,3.6
		c-0.2,0.4-0.4,0.8-0.6,1.1c-0.2,0.3-0.4,0.6-0.7,0.8c-0.2,0.2-0.5,0.3-0.8,0.4C37,64,36.7,64,36.3,64c-0.1,0-0.2,0-0.3,0
		c-0.1,0-0.2,0-0.3-0.1c-0.1,0-0.2,0-0.3-0.1c-0.1,0-0.2-0.1-0.2-0.1L35.4,62.7z"/>
	<path fill="#0178B9" d="M49.5,50.3c0.4,0,0.7,0,1,0.1c0.3,0.1,0.5,0.1,0.6,0.2l-0.2,1.1c-0.1-0.1-0.3-0.1-0.5-0.2
		c-0.2-0.1-0.5-0.1-0.8-0.1c-0.6,0-1,0.2-1.3,0.5c-0.2,0.3-0.4,0.8-0.4,1.4v0.6h2.8V55h-2.8v6.3h-1.3v-8.1c0-0.9,0.2-1.7,0.7-2.2
		S48.5,50.3,49.5,50.3z"/>
	<path fill="#0178B9" d="M58.6,57.6c0,0.6-0.1,1.1-0.3,1.6c-0.2,0.5-0.4,0.9-0.7,1.2c-0.3,0.3-0.7,0.6-1.1,0.8
		c-0.4,0.2-0.9,0.3-1.4,0.3c-0.5,0-1-0.1-1.4-0.3c-0.4-0.2-0.8-0.4-1.1-0.8c-0.3-0.3-0.5-0.7-0.7-1.2c-0.2-0.5-0.3-1-0.3-1.6
		c0-0.6,0.1-1.1,0.3-1.6s0.4-0.9,0.7-1.2c0.3-0.3,0.7-0.6,1.1-0.8s0.9-0.3,1.4-0.3c0.5,0,1,0.1,1.4,0.3c0.4,0.2,0.8,0.4,1.1,0.8
		c0.3,0.3,0.5,0.8,0.7,1.2C58.5,56.5,58.6,57.1,58.6,57.6z M57.2,57.6c0-0.8-0.2-1.5-0.6-2c-0.4-0.5-0.9-0.7-1.5-0.7
		c-0.6,0-1.2,0.2-1.5,0.7c-0.4,0.5-0.6,1.1-0.6,2c0,0.8,0.2,1.5,0.6,2c0.4,0.5,0.9,0.7,1.5,0.7c0.6,0,1.2-0.2,1.5-0.7
		C57,59.1,57.2,58.5,57.2,57.6z"/>
	<path fill="#0178B9" d="M63.2,53.8c0.1,0,0.2,0,0.4,0s0.3,0,0.4,0.1c0.1,0,0.3,0,0.4,0.1s0.2,0,0.3,0.1l-0.2,1.2
		c-0.1,0-0.3-0.1-0.5-0.1c-0.2-0.1-0.6-0.1-0.9-0.1c-0.2,0-0.5,0-0.7,0.1s-0.4,0.1-0.5,0.1v6.2h-1.3v-7.1c0.3-0.1,0.7-0.2,1.2-0.3
		C62.1,53.8,62.6,53.8,63.2,53.8z"/>
	<path fill="#0178B9" d="M71.4,61.5c-0.8,0-1.4-0.2-1.7-0.5c-0.3-0.3-0.5-0.8-0.5-1.5v-8.9l1.3-0.2v8.9c0,0.2,0,0.4,0.1,0.5
		c0,0.1,0.1,0.3,0.2,0.3c0.1,0.1,0.2,0.1,0.3,0.2c0.1,0,0.3,0.1,0.5,0.1L71.4,61.5z"/>
	<path fill="#0178B9" d="M72.7,57.6c0-0.7,0.1-1.2,0.3-1.7c0.2-0.5,0.4-0.9,0.8-1.2c0.3-0.3,0.7-0.6,1.1-0.7
		c0.4-0.2,0.8-0.2,1.3-0.2c1,0,1.8,0.3,2.3,0.9c0.5,0.6,0.8,1.6,0.8,2.8c0,0.1,0,0.1,0,0.2s0,0.2,0,0.2H74c0.1,0.8,0.3,1.4,0.7,1.7
		c0.4,0.4,1,0.6,1.8,0.6c0.5,0,0.9,0,1.2-0.1c0.3-0.1,0.6-0.2,0.7-0.2l0.2,1.1c-0.2,0.1-0.4,0.2-0.8,0.3c-0.4,0.1-0.9,0.1-1.4,0.1
		c-0.6,0-1.2-0.1-1.7-0.3c-0.5-0.2-0.9-0.5-1.2-0.8c-0.3-0.3-0.5-0.7-0.7-1.2C72.7,58.7,72.7,58.2,72.7,57.6z M77.7,56.9
		c0-0.6-0.1-1.1-0.4-1.5c-0.3-0.4-0.7-0.6-1.3-0.6c-0.3,0-0.6,0.1-0.8,0.2c-0.2,0.1-0.4,0.3-0.6,0.5c-0.2,0.2-0.3,0.4-0.4,0.7
		c-0.1,0.2-0.1,0.5-0.2,0.8H77.7z"/>
	<path fill="#0178B9" d="M83.4,53.8c0.5,0,1,0.1,1.3,0.2c0.4,0.1,0.7,0.3,0.9,0.6s0.4,0.5,0.5,0.9c0.1,0.3,0.1,0.7,0.1,1.1v4.6
		c-0.1,0-0.3,0-0.5,0.1c-0.2,0-0.4,0.1-0.7,0.1s-0.5,0.1-0.8,0.1c-0.3,0-0.6,0-0.9,0c-0.4,0-0.8,0-1.2-0.1s-0.7-0.2-0.9-0.4
		c-0.3-0.2-0.5-0.4-0.6-0.7c-0.1-0.3-0.2-0.7-0.2-1.1c0-0.4,0.1-0.8,0.2-1.1c0.2-0.3,0.4-0.5,0.7-0.7c0.3-0.2,0.6-0.3,1-0.4
		c0.4-0.1,0.8-0.1,1.2-0.1c0.1,0,0.3,0,0.4,0c0.1,0,0.3,0,0.4,0.1s0.2,0,0.3,0.1c0.1,0,0.2,0,0.2,0v-0.4c0-0.2,0-0.4-0.1-0.6
		c0-0.2-0.1-0.4-0.3-0.6c-0.1-0.2-0.3-0.3-0.5-0.4c-0.2-0.1-0.5-0.1-0.8-0.1c-0.4,0-0.8,0-1.1,0.1s-0.6,0.1-0.7,0.2l-0.2-1.1
		c0.2-0.1,0.5-0.1,0.9-0.2C82.5,53.8,82.9,53.8,83.4,53.8z M83.5,60.4c0.3,0,0.6,0,0.8,0c0.2,0,0.4,0,0.6-0.1v-2.2
		c-0.1,0-0.2-0.1-0.5-0.1s-0.5,0-0.8,0c-0.2,0-0.4,0-0.6,0s-0.4,0.1-0.6,0.2c-0.2,0.1-0.3,0.2-0.5,0.4s-0.2,0.4-0.2,0.6
		c0,0.5,0.2,0.8,0.5,1C82.6,60.3,83,60.4,83.5,60.4z"/>
	<path fill="#0178B9" d="M93.2,50.5l1.3-0.2v10.8c-0.3,0.1-0.7,0.2-1.2,0.3c-0.5,0.1-1,0.1-1.6,0.1c-0.6,0-1.1-0.1-1.5-0.3
		c-0.5-0.2-0.8-0.4-1.2-0.8c-0.3-0.3-0.6-0.7-0.7-1.2c-0.2-0.5-0.3-1-0.3-1.6c0-0.6,0.1-1.1,0.2-1.6c0.1-0.5,0.4-0.9,0.6-1.2
		c0.3-0.3,0.6-0.6,1-0.8s0.9-0.3,1.4-0.3c0.4,0,0.8,0.1,1.1,0.2c0.3,0.1,0.6,0.2,0.7,0.3V50.5z M93.2,55.5c-0.2-0.1-0.4-0.3-0.7-0.4
		c-0.3-0.1-0.6-0.2-1-0.2c-0.4,0-0.7,0.1-1,0.2c-0.3,0.1-0.5,0.3-0.7,0.6c-0.2,0.2-0.3,0.5-0.4,0.9c-0.1,0.3-0.1,0.7-0.1,1.1
		c0,0.9,0.2,1.5,0.6,2c0.4,0.5,1,0.7,1.7,0.7c0.4,0,0.7,0,0.9,0c0.2,0,0.4-0.1,0.6-0.1V55.5z"/>
	<path fill="#0178B9" d="M96.4,57.6c0-0.7,0.1-1.2,0.3-1.7c0.2-0.5,0.4-0.9,0.8-1.2c0.3-0.3,0.7-0.6,1.1-0.7
		c0.4-0.2,0.8-0.2,1.3-0.2c1,0,1.8,0.3,2.3,0.9c0.5,0.6,0.8,1.6,0.8,2.8c0,0.1,0,0.1,0,0.2s0,0.2,0,0.2h-5.1
		c0.1,0.8,0.3,1.4,0.7,1.7c0.4,0.4,1,0.6,1.8,0.6c0.5,0,0.9,0,1.2-0.1c0.3-0.1,0.6-0.2,0.7-0.2l0.2,1.1c-0.2,0.1-0.4,0.2-0.8,0.3
		c-0.4,0.1-0.9,0.1-1.4,0.1c-0.6,0-1.2-0.1-1.7-0.3c-0.5-0.2-0.9-0.5-1.2-0.8c-0.3-0.3-0.5-0.7-0.7-1.2
		C96.5,58.7,96.4,58.2,96.4,57.6z M101.5,56.9c0-0.6-0.1-1.1-0.4-1.5c-0.3-0.4-0.7-0.6-1.3-0.6c-0.3,0-0.6,0.1-0.8,0.2
		c-0.2,0.1-0.4,0.3-0.6,0.5c-0.2,0.2-0.3,0.4-0.4,0.7c-0.1,0.2-0.1,0.5-0.2,0.8H101.5z"/>
	<path fill="#0178B9" d="M107.5,53.8c0.1,0,0.2,0,0.4,0s0.3,0,0.4,0.1c0.1,0,0.3,0,0.4,0.1s0.2,0,0.3,0.1l-0.2,1.2
		c-0.1,0-0.3-0.1-0.5-0.1c-0.2-0.1-0.6-0.1-0.9-0.1c-0.2,0-0.5,0-0.7,0.1s-0.4,0.1-0.5,0.1v6.2h-1.3v-7.1c0.3-0.1,0.7-0.2,1.2-0.3
		C106.4,53.8,106.9,53.8,107.5,53.8z"/>
	<path fill="#0178B9" d="M112,60.4c0.5,0,0.9-0.1,1.2-0.2c0.3-0.1,0.4-0.4,0.4-0.7c0-0.3-0.1-0.6-0.4-0.8s-0.7-0.4-1.3-0.6
		c-0.3-0.1-0.6-0.2-0.8-0.3c-0.3-0.1-0.5-0.3-0.7-0.4s-0.3-0.4-0.5-0.6c-0.1-0.2-0.2-0.5-0.2-0.8c0-0.7,0.2-1.2,0.7-1.6
		c0.5-0.4,1.1-0.6,2-0.6c0.2,0,0.4,0,0.6,0c0.2,0,0.4,0.1,0.6,0.1s0.3,0.1,0.5,0.1c0.1,0,0.2,0.1,0.3,0.1l-0.2,1.1
		c-0.1-0.1-0.4-0.2-0.7-0.2c-0.3-0.1-0.7-0.1-1.1-0.1c-0.4,0-0.7,0.1-1,0.2c-0.3,0.1-0.4,0.4-0.4,0.7c0,0.2,0,0.3,0.1,0.4
		s0.2,0.2,0.3,0.3s0.3,0.2,0.5,0.3c0.2,0.1,0.4,0.2,0.7,0.3c0.4,0.1,0.7,0.3,0.9,0.4c0.3,0.1,0.5,0.3,0.7,0.4
		c0.2,0.2,0.3,0.4,0.4,0.6c0.1,0.2,0.2,0.5,0.2,0.9c0,0.7-0.3,1.2-0.8,1.5s-1.2,0.5-2.2,0.5c-0.7,0-1.2-0.1-1.5-0.2
		c-0.4-0.1-0.6-0.2-0.8-0.2l0.2-1.1c0.2,0.1,0.4,0.1,0.7,0.3C111,60.3,111.4,60.4,112,60.4z"/>
</g>
</svg>
